<svg xmlns="http://www.w3.org/2000/svg" width="67" height="71" viewBox="0 0 67 71" fill="none">
  <path d="M10.2292 32.3753C10.3426 44.6712 20.0728 54.756 32.4113 55.3652V68.2702H16.5345C15.8995 68.2702 15.4005 68.7665 15.4005 69.3983C15.4005 70.03 15.8995 70.5263 16.5345 70.5263H50.4655C51.1005 70.5263 51.5995 70.03 51.5995 69.3983C51.5995 68.7665 51.1005 68.2702 50.4655 68.2702H34.5887V55.3652C46.9499 54.7786 56.6801 44.6712 56.7935 32.3753C63.8246 32.0143 67 28.3369 67 20.4856V4.51224C67 3.88053 66.501 3.38418 65.8659 3.38418H56.7935V1.12806C56.7935 0.496346 56.2945 0 55.6594 0H11.3406C10.7055 0 10.2065 0.496346 10.2065 1.12806V3.38418H1.13406C0.498984 3.38418 0 3.88053 0 4.51224V20.4856C0 28.3369 3.19804 32.0143 10.2292 32.3753ZM64.8226 5.6403V20.4856C64.8226 27.1186 62.5545 29.8259 56.8842 30.1418V5.6403H64.8226ZM12.4746 2.27868H54.6161V32.2174C54.6161 43.7913 45.1808 53.1767 33.5454 53.1767C21.91 53.1767 12.4746 43.7913 12.4746 32.2174V2.27868ZM2.24543 5.6403H10.2065V30.1418C4.46818 29.8259 2.24543 27.1411 2.24543 20.4856V5.6403Z" fill="#14A5BB"/>
</svg>